<?xml version="1.0" encoding="iso-8859-1"?>
<!-- Generator: Adobe Illustrator 18.0.0, SVG Export Plug-In . SVG Version: 6.00 Build 0)  -->
<!DOCTYPE svg PUBLIC "-//W3C//DTD SVG 1.1//EN" "http://www.w3.org/Graphics/SVG/1.1/DTD/svg11.dtd">
<svg version="1.1" id="Capa_1" xmlns="http://www.w3.org/2000/svg" xmlns:xlink="http://www.w3.org/1999/xlink" x="0px" y="0px"
	 viewBox="0 0 386.289 386.289" style="enable-background:new 0 0 386.289 386.289;" xml:space="preserve">
<path d="M369.205,286.323c-9.039-9.292-31.557-22.972-52.073-8.243c-2.691,1.932-3.308,5.682-1.375,8.373
	c0.688,0.958,1.607,1.647,2.625,2.058l-0.002,0.005c12.299,4.979,18.748,12.48,17.691,20.582c-0.84,6.444-6.309,12.099-12.45,12.873
	c-2.37,0.296-10.595,0.656-17.243-7.221c-6.745-7.99-15.54-29.714,1.333-85.44c13.793-45.554,7.701-78.461,0.161-98.045
	c-5.281-13.717-11.955-23.007-16.259-28.084l28.459-28.459c1.979,8.061,6.454,14.862,12.868,19.063
	c7.914,5.182,17.282,5.438,25.698,0.701c10.836-6.098,28.699-25.587,26.586-87.609c-0.107-3.177-2.698-5.674-5.803-5.785
	l0.001-0.018c-62.035-2.109-81.513,15.751-87.61,26.587c-4.736,8.419-4.48,17.785,0.701,25.698
	c4.205,6.42,11.021,10.884,19.092,12.859l-28.478,28.478c-5.076-4.304-14.366-10.983-28.094-16.269
	c-19.583-7.539-52.49-13.632-98.045,0.16c-55.725,16.875-77.447,8.08-85.438,1.336c-7.879-6.649-7.52-14.881-7.222-17.246
	c0.773-6.141,6.427-11.609,12.871-12.449c8.104-1.063,15.603,5.392,20.581,17.691l0.005-0.002c0.41,1.018,1.1,1.938,2.058,2.625
	c2.692,1.934,6.441,1.317,8.373-1.375c14.73-20.518,1.051-43.033-8.183-52.014C77.188-5.693,40.011-5.695,17.164,17.152
	C6.095,28.221-0.001,42.937,0,58.59c0,15.528,6.981,29.803,16.9,41.172c1.888,2.346,11.271,12.826,33.415,20.251l103.748,103.748
	l-55.421,55.421c-32.61-4.723-58.657,20.864-59.783,21.992L7.96,332.072c-1.819,1.819-2.276,4.595-1.138,6.9
	c1.021,2.066,3.118,3.343,5.378,3.343c0.263,0,0.527-0.017,0.793-0.052l35.807-4.762l-4.762,35.806
	c-0.34,2.55,0.984,5.032,3.29,6.171c0.846,0.418,1.754,0.62,2.655,0.62c1.558,0,3.093-0.605,4.245-1.757l30.896-30.898
	c1.127-1.127,26.713-27.162,21.997-59.771l55.426-55.426l103.737,103.737c8.771,21.498,17.906,31.527,20.252,33.414
	c11.391,11.249,26.28,16.873,41.171,16.873c15.007,0,30.014-5.713,41.439-17.137C391.993,346.288,391.993,309.112,369.205,286.323z
	 M302.553,46.785c-2.682-4.095-2.781-8.797-0.282-13.239c2.893-5.143,16.421-21.396,71.099-20.616
	c0.78,54.654-15.473,68.204-20.615,71.098c-4.443,2.5-9.146,2.4-13.239-0.281c-6.067-3.973-9.372-12.591-8.42-21.955
	c0.256-2.524-1.103-4.938-3.396-6.026c-1.018-0.484-2.119-0.643-3.188-0.532l-0.003-0.029
	C315.14,56.158,306.525,52.851,302.553,46.785z M61.723,331.31c0.067-0.514,0.076-1.043,0.005-1.581
	c-0.436-3.285-3.45-5.589-6.738-5.157l-26.02,3.461l9.059-9.059l33.792-4.494l-4.493,33.79l-9.06,9.06l3.46-26.018L61.723,331.31z
	 M81.431,333.236l3.317-24.946c0.438-3.285-1.871-6.302-5.156-6.739c-0.538-0.071-1.067-0.061-1.581,0.007l-0.001-0.007
	l-24.987,3.323c8.153-6.19,24.214-15.964,42.395-13.992C97.361,308.963,87.613,325.049,81.431,333.236z M25.648,91.541
	C16.848,82.738,12,71.037,12,58.59c0-12.447,4.847-24.15,13.648-32.951c18.17-18.17,47.732-18.169,65.949,0.047
	c0.632,0.622,12.501,12.527,10.977,26.067c-7.116-9.861-16.644-14.762-26.925-13.424c-11.794,1.538-21.778,11.36-23.226,22.851
	c-0.488,3.881-1.112,17.364,11.388,27.915c17.501,14.771,50.02,15.101,96.656,0.979c41.899-12.69,71.837-7.389,89.573-0.707
	c11.89,4.479,20.054,10.16,24.562,13.854l-28.419,28.419c-11.468-8.1-44.884-25.579-112.356-17.812
	C51.11,123.348,25.864,91.756,25.648,91.541z M72.659,125.388c8.944,1.42,19.166,2.28,30.807,2.28
	c9.588,0,20.143-0.584,31.733-1.918c60.378-6.944,91.227,7.477,102.311,14.564l-74.962,74.962L72.659,125.388z M260.912,313.641
	l-89.879-89.879l74.959-74.959c7.092,11.097,21.504,41.95,14.557,102.299C257.595,276.767,258.321,297.327,260.912,313.641z
	 M360.662,360.65c-18.171,18.168-48.59,15.194-65.904,0c-0.229-0.2-31.81-25.459-22.287-108.178
	c7.764-67.45-9.702-100.867-17.804-112.345l28.428-28.428c9.652,11.793,32.912,48.805,13.132,114.132
	c-14.122,46.638-13.792,79.158,0.981,96.658c8.414,9.969,18.691,11.59,24.478,11.59c1.469,0,2.649-0.105,3.435-0.204
	c11.489-1.448,21.313-11.433,22.85-23.227c1.338-10.268-3.563-19.804-13.426-26.924c13.543-1.523,25.458,10.354,26.116,11.024
	C378.829,312.918,378.829,342.481,360.662,360.65z"/>
<g>
</g>
<g>
</g>
<g>
</g>
<g>
</g>
<g>
</g>
<g>
</g>
<g>
</g>
<g>
</g>
<g>
</g>
<g>
</g>
<g>
</g>
<g>
</g>
<g>
</g>
<g>
</g>
<g>
</g>
</svg>
